<?xml version="1.0" standalone="no"?><!DOCTYPE svg PUBLIC "-//W3C//DTD SVG 1.1//EN" "http://www.w3.org/Graphics/SVG/1.1/DTD/svg11.dtd"><svg t="1580639228017" class="icon" viewBox="0 0 1050 1024" version="1.1" xmlns="http://www.w3.org/2000/svg" p-id="5301" xmlns:xlink="http://www.w3.org/1999/xlink" width="205.078125" height="200"><defs><style type="text/css"></style></defs><path d="M551.384615 0h-157.538461c-28.882051 0-52.512821 23.630769-52.512821 52.512821v892.717948c0 28.882051 23.630769 52.512821 52.512821 52.512821h157.538461c28.882051 0 52.512821-23.630769 52.512821-52.512821V52.512821c0-28.882051-23.630769-52.512821-52.512821-52.512821zM210.051282 210.051282H52.512821c-28.882051 0-52.512821 23.630769-52.512821 52.512821v682.666666c0 28.882051 23.630769 52.512821 52.512821 52.512821h157.538461c28.882051 0 52.512821-23.630769 52.512821-52.512821V262.564103c0-28.882051-23.630769-52.512821-52.512821-52.512821zM1047.630769 921.6L929.476923 249.435897c-5.251282-28.882051-31.507692-47.261538-60.389744-42.010256l-154.91282 26.25641c-28.882051 5.251282-47.261538 31.507692-42.010256 60.389744l118.153846 672.164102c5.251282 28.882051 31.507692 47.261538 60.389743 42.010257l154.912821-26.25641c28.882051-5.251282 47.261538-31.507692 42.010256-60.389744z" p-id="5302"></path></svg>