<?xml version="1.0" standalone="no"?><!DOCTYPE svg PUBLIC "-//W3C//DTD SVG 1.1//EN" "http://www.w3.org/Graphics/SVG/1.1/DTD/svg11.dtd"><svg t="1580639468655" class="icon" viewBox="0 0 1024 1024" version="1.1" xmlns="http://www.w3.org/2000/svg" p-id="9031" xmlns:xlink="http://www.w3.org/1999/xlink" width="200" height="200"><defs><style type="text/css"></style></defs><path d="M959.47595173 685.32926838l-713.48700053 0q-11.34155611 0-23.71416324 6.18630306t-23.19863774 18.5589102-17.5278602 29.38494182-6.70182855 38.6643969 5.67077856 40.21097243 14.95023367 32.99361832 22.68311327 22.68311328 28.86941628 8.24840508l712.45595053 0q-12.37260714-12.37260714-21.65206223-27.83836528-8.2484051-13.40365712-14.95023366-31.96256834t-6.70182855-42.27307345q0-26.80731529 6.70182855-44.33517445t14.95023366-28.86941631q9.27945509-12.37260714 21.65206223-21.65206222zM959.47595173 966.80607636q0 17.5278602-22.68311326 17.52786019l-753.69797395 0q-35.05571937 0-58.76988262-14.43470814t-38.66439692-39.69544692-21.13653671-60.31645915-6.18630304-75.2666928l0-598.00933633q0-79.39089485 42.27307342-114.9621397t120.63291829-35.57124489l35.05571937 0 70.11143974 0 95.88770402 0q52.58357955 0 107.74478564-0.5155255t107.74478563-0.51552553l96.91875402 0 72.17354077 0 36.08677038 0q28.86941631 0 50.52147854 11.85708163t36.08677037 32.99361835 22.16758774 50.00595302 7.7328796 61.86303468l0 417.57548437q-196.93066108 0-354.68139977-1.03105102l-131.97447438 0q-65.9872367 0-118.05529176-0.51552552t-86.09272341-0.51552551l-38.1488714 0q-21.65206224 0-42.27307345 12.88813267t-37.11782037 35.05571934-26.8073153 51.55252854-10.31050611 61.34750914q0 39.17992242 10.82603062 70.62696424t28.3538908 53.09910506 38.66439689 33.50914386 41.75754896 11.85708162l704.20754542 0q8.2484051 0 14.95023367 4.63972754t6.70182856 14.95023368zM515.09315204 45.04685863l0 399.01657422 79.39089484-111.35346217 78.35984382 111.35346217 0-399.01657422-157.75073866 0z" p-id="9032"></path></svg>