<?xml version="1.0" standalone="no"?><!DOCTYPE svg PUBLIC "-//W3C//DTD SVG 1.1//EN" "http://www.w3.org/Graphics/SVG/1.1/DTD/svg11.dtd"><svg t="1580639494980" class="icon" viewBox="0 0 1024 1024" version="1.1" xmlns="http://www.w3.org/2000/svg" p-id="9766" xmlns:xlink="http://www.w3.org/1999/xlink" width="200" height="200"><defs><style type="text/css"></style></defs><path d="M933.717333 512A140.202667 140.202667 0 0 1 1024 381.141333a525.098667 525.098667 0 0 0-57.386667-138.624 140.032 140.032 0 0 1-185.045333-185.130666A527.445333 527.445333 0 0 0 642.858667 0a139.989333 139.989333 0 0 1-261.717334 0 525.098667 525.098667 0 0 0-138.624 57.386667 140.032 140.032 0 0 1-185.045333 185.130666A521.6 521.6 0 0 0 0 381.141333a139.989333 139.989333 0 0 1 0 261.717334 525.098667 525.098667 0 0 0 57.386667 138.624 140.032 140.032 0 0 1 185.045333 185.130666A527.445333 527.445333 0 0 0 381.141333 1024a139.989333 139.989333 0 0 1 261.717334 0 525.098667 525.098667 0 0 0 138.624-57.386667 140.032 140.032 0 0 1 185.045333-185.130666A521.6 521.6 0 0 0 1024 642.858667 140.202667 140.202667 0 0 1 933.717333 512zM512 652.586667A140.586667 140.586667 0 1 1 652.586667 512 140.8 140.8 0 0 1 512 652.586667z" p-id="9767"></path></svg>